<?xml version="1.0" encoding="utf-8"?>
<!-- Generator: Adobe Illustrator 26.2.1, SVG Export Plug-In . SVG Version: 6.00 Build 0)  -->
<svg version="1.1" id="Layer_1" xmlns="http://www.w3.org/2000/svg" xmlns:xlink="http://www.w3.org/1999/xlink" x="0px" y="0px"
	 viewBox="0 0 1920 1080" style="enable-background:new 0 0 1920 1080;" xml:space="preserve">
<style type="text/css">
	.st0{fill-rule:evenodd;clip-rule:evenodd;fill:#2072B4;}
	.st1{fill-rule:evenodd;clip-rule:evenodd;fill:#1D56A3;}
	.st2{fill-rule:evenodd;clip-rule:evenodd;fill:#98CA8A;}
	.st3{fill-rule:evenodd;clip-rule:evenodd;fill:#83BB7C;}
	.st4{fill:#C6E0BB;}
</style>
<g>
	<path class="st0" d="M1924,1112c0,531.3-430.7,962-962,962S0,1643.3,0,1112s430.7-962,962-962S1924,580.7,1924,1112L1924,1112z"/>
	<path class="st1" d="M1312,215.7c168.6,94.2,285.3,274.4,357.6,448.1c80.6,193.8,130.4,424.2,62.5,629.3
		c-56.7,171.2-180.6,314-336.8,403c-174.5,99.5-373.1,125.8-571.6,120.2c-220.3-6.3-421.9-70.3-592.6-212.6
		c-71.9-59.9-134.1-129.7-187.8-206.1C164.8,1789.5,530.2,2074,962,2074c531.3,0,962-430.7,962-962
		C1924,704.2,1670.2,355.7,1312,215.7L1312,215.7z"/>
	<path class="st2" d="M405.8,326.5c27.6,7,55.1,14.7,82.9,20.7c23.6,5.1,38.1,34.5,67.3,24.6c7.1-2.4,19.1,3,19.4-9.5
		c0.4-12.3-10-13.9-20.1-14.5c-14.7-0.8-31.3,6.5-32.4-21.9c-0.7-17.9-25.8-0.1-40.3-10.2c22.9-22.4,44-41.8,78.4-38
		c13.4,1.5,23.3,4.5,31.9,15.6c22,28.5,42.5,30.6,70.7,8.6c6.5-5,13.3-14.4,20.7-4.6c6.9,9.1-4.1,14-9.4,19.8
		c-11.1,12.2-24.2,19.3-41.4,17.6c-15-1.5-20.9,5.7-19.1,20.6c1.7,14.5,10.7,14.5,22.4,14.8c27.6,0.8,50.1-17,77.1-19.7
		c13.8-1.4,20.2-16,5-27c-6.9-5-12-8.3-8.1-16.7c3.5-7.4,10.5-10,18.2-10.1c17.7-0.2,35.5-0.1,52.7-0.1c4.9,11.2-4.1,14.3-8.7,18.5
		c-8.9,8.1-17.3,15.1-10.2,29c6.3,12.4,17.3,15.6,28.8,14c16-2.3,10.3-16.5,9.6-25.4c-1.5-19.3,10.9-26.7,25-31.1
		c33.3-10.4,67.4-18.6,99.9,1.7c23.4,14.6,62.5,11.9,61,55.5c-0.4,10.5,34.1,5.8,16.3,29.4c-10.2,13.6-24.9,7.4-37.8,9.5
		c-2,0.3-5.1,0.6-5.8,1.9c-26.8,54.2-60.4,4.3-94.6,11.5c11.5-19.6,27.2-21.8,38.9-29.7c6.5-4.4,18-6.2,15.8-16.8
		c-2-9.5-10.7-16.4-20.3-17.2c-20.8-1.7-42.5-3.4-61.5,6.7c-16,8.5-26.7,24.2-47.6,28c-7.2,1.3-13,24.9-25.3,34.7
		c-8.6,6.9-16.5,7.6-19-3.3c-4.9-22.3-17.9-14.5-30.9-10.8c-33.8,9.6-61.6,30.9-91.3,48.1c-20.6,11.9-7.1,29.9,1.7,43.4
		c6.2,9.5,17.5,15,29.3,16.6c25.1,3.5,48.2,8.2,40.5,43c-1.4,6.2,1.8,12.4,9.9,13.1c8.6,0.8,14.7-3.3,17-10.9
		c7.9-26.3,27.4-38,52.4-43.4c17.9-3.9,13.8-18.4,14.1-30.3c1.4-57.5,32.8-74.7,84.1-46.2c9.1,5,11.2,11.8,8.7,20.8
		c-7.6,27.8,8.8,24.8,25.8,19.9c6.9-2,13.2-6.2,19.6-9.8c15-8.4,21.7-3.4,20,12.9c-2.4,22.2,5.7,36.8,25.3,48.9
		c19.9,12.3,18,32.2-3.3,43.2c-21.6,11.2-19.1,18.4,0.2,28.4c10.2,5.2,30.2,11.1,18.6,25.2c-12.2,14.8-31.1-0.6-46.5-4.6
		c-12-3.1-17.3-11.5-8.1-23.6c5-6.6,12.1-13.9,2.8-21.5c-7.5-6.1-12.7,2.2-19,5.2c-15.7,7.3-30.9,10.4-45.9-4
		c-13.2-12.8-30.2-14.3-39.7,3.2c-12.1,22.5,18.7,16,22.1,26.2c-68.5,26.4-118.3,78.1-172.1,123.9c-2.4,2-5.9,4.1-6.4,6.7
		c-10,49.1-56.8,63.2-87.8,92c-13.7,12.8-17.8,26.5-17,44.5c0.4,8,12.9,23.5-5.4,24.6c-11.1,0.7-28.7-6.3-27.6-20.5
		c2.6-33.1-19-28.2-37.8-26.9c-32.8,2.2-65.4-4.5-98.6,10c-39,17.1-55.3,47.8-69.4,83.5c-9.2,23.5-1.6,43,15.5,55.4
		c16,11.6,37.5,12.2,56.2,0.4c13.3-8.3,25.9-17.7,39.1-26.1c6.3-4,11.8-14.3,21.3-5.5c6.9,6.4,3.7,14.7,0.3,20.4
		c-16.7,28.1-10.9,43,23.2,43.9c10.3,0.3,14.1,6.9,14.9,16.6c0.7,8.3,3.1,16.4,4.1,24.7c6.2,49.6,406.2,122.4,414,139.7
		c6.2,13.8-6.2,34.6,9.5,43.7c23.3,13.6,48.7,24.2,76.7,25.2c7.3,0.2,14.7,0.5,22,0c28.3-2,54.7-1.4,66.8,31.8
		c2.1,5.7,10.4,11.1,16.9,12.7c32.7,8.3,27.6,33.8,12.8,46.6c-43.1,37.3-39.5,87.2-45.3,135.1c-4.1,33.9-27.4,56.1-61.7,56.1
		c-44.9,0.1-57.1,13.8-45,57.1c7,25.2,3.4,43.9-15.1,62.2c-13.3,13.1-27.3,27.7-34.4,44.4c-18.8,44.1-56.4,59.1-97.9,68.8
		c-17,4-26.2,9.6-8.2,22.3c16.6,11.7,9.8,20.1,0.3,30c-15.3,16-8.8,27.5,9,32c19.5,5,24.2,14.6,15.6,31.4
		c-11.6,22.6-1.8,36.8,15.9,50.5c8.1,6.3,22.2,13,15.2,27.2c-5.6,11.4-17,2.3-25.7,3.5c-44.5,6.6-67.1-27.6-88.8-54.2
		c-26.3-32.1-52.3-68.3-39.3-116.5c3.6-13.2,6-30.1-6.1-41.8c-22.9-22.1-28.3-48.7-16.9-76.7c10.1-24.6-14.7-38.3-13.9-59.7
		c1.2-30.3,0.2-60.7,0.2-91c0.1-53.3-15.8-78-65.9-94.6c-17.2-5.7-25-12.9-29-31.1c-5.8-26.2-29-42.5-45.2-62.5
		c-36.1-44.2-30.9-111.8,16.2-142.4c28-18.2,8.4-39.5,10-59c1.6-19.5-93.1-34.5-113.2-64.1c-11.5-16.9-26.7-24.7-45.7-29.4
		c-16.8-4.2-38.9-1.2-42.9-27.9c-1.1-7.6-13.3-7.9-19.3-5.3c-29.1,12.3-55.2-3.6-82.1-8.3c-20.7-3.6-41.9-47.1-34.6-67.7
		c3.7-10.6,1.6-17.2-4.4-25.5c-22.8-32.2-49.6-62.5-51.9-104.9c-0.4-6.7-3.3-13.2-11-12.5c-10.1,0.9-8.6,9.7-9.4,16.8
		c-3,27.1,10.3,47.8,24.4,69c7.9,12,25.1,29.8,8.4,40.9c-18.6,12.3-29.5-7.7-40.2-23c-19.7-28.1-26.7-58.1-23.4-91.6
		c1.3-13.7,1.4-27.4-15.6-33.5c-21.9-7.8-32.3-22.1-24.1-46.1c2.6-7.5,0.3-12.4-9.1-9.6C129.1,604,214.7,488.4,324.7,390.3
		C350.4,367.4,376.2,344.6,405.8,326.5L405.8,326.5z"/>
	<path class="st2" d="M1707,1710.3c-18.4,2.6-28.6-3.9-25.8-23.8c3.8-27.1-5.6-49.4-24.2-68.2c-18.8-19.1-13.2-43-13.2-65.5
		c0-17.3-0.8-32.8-15.9-45c-20.6-16.7-21.8-39.7-7.5-58.9c29.1-39,23.5-73-3.6-110.3c-26-35.7-47.2-74.6-30.3-122.3
		c3.7-10.5,1.2-20.5-13.9-22.2c-23.6-2.7-46.2-6.4-66.7-22.3c-11.3-8.7-31.7-7.2-45.4,0.1c-37.9,20.4-79.9,8.2-118.9,17.7
		c-2.9,0.7-7,0.6-9.2-1c-35.7-26.4-61.5-62.3-88.5-96.5c-15.6-19.7-5.3-46.6-6.3-70.3c-0.4-9.2,9-13.8,12.4-20.8
		c5.3-11.2,18.7-23.2-5.2-34.3c-16.4-7.7-19.8-25.7-0.3-39.4c17.1-12,32.9-26,50.7-36.9c26.2-16,44.6-32.5,42.2-68.9
		c-2-30.1,32.9-40,51.8-38.8c54.9,3.5,102.8-24.2,156-26.4c38.1-1.6,40.4-3.4,43.5,33.4c1.1,13.5,6.2,20.4,19.5,24.1
		c27,7.4,55.4,10.8,80.1,26c7.7,4.7,14.6,4.1,19.6-6.9c10.1-22.3,38.6-33,57.2-16.3c35.8,32.3,76.7,27.1,118.1,26.2
		C1967.8,1161,1910,1450.4,1707,1710.3L1707,1710.3z"/>
	<path class="st2" d="M1857.8,760.9c-59.4,1.3-62.9-0.6-75-54.2c-3.4-15.1-9.5-13-19.3-7.8c-7,3.8-9.4,10.2-13,16.7
		c-5.7,10.2-0.3,31.8-14.3,30c-15.6-2-31.1-19.3-31.1-35.5c-0.1-31.1-20.2-46-40-62.6c-4-3.3-7.8-7.9-12.4-9.2
		c-12.1-3.2-28.7-7.5-35.4,2.4c-7.7,11.4,0.6,26.6,11,35.7c9.3,8.1,21,13.6,31.9,19.7c9.6,5.4,17.9,9.8,12.4,23.9
		c-4.5,11.9,0.1,28-17.9,32.9c-13.9,3.8-24.4,1.4-31-12.3c5.9-7.3,14.1-2.8,20.5-5.3c11.8-4.7,14.6-10.5,3.4-19.9
		c-22.7-19.2-54-28-69.3-56.4c-0.8-1.5-5.8-2.1-8.1-1.1c-42.1,17.4-84.7,32.2-104.2,81c-11.9,29.9-93.4,30.8-106.3,1.8
		c-8.7-19.6-12-44.5,1.3-63.4c11.2-15.9,32.7-16,51.4-15.4c9.2,0.3,18.3,3.9,27.5,5.3c7.8,1.2,14.2-0.6,17.6-9.2
		c3.1-7.7,1.6-12.5-3.9-19.3c-20-25.1-12.1-44,19.8-46.4c16.4-1.3,29.2-7.2,35.7-21.2c15.4-33.1,41.5-40.5,74.7-35.8
		c8.5,1.2,21.4,6,24.7-5.5c2.7-9.1,0.7-21.5-3.6-30.3c-6.2-12.9-16.8-2-24.4,0.3c-9.5,2.8-16.1,3.6-19.8-7.1
		c-3.9-11.3-10.7-17.4-22.3-23.2c-20-9.9-12.3-34.1,13.6-46.6c17.9-8.7,43-9.1,43.2-37.9c97.5,91.2,179.3,194.1,235.5,316.1
		C1840.1,721,1848.8,741,1857.8,760.9L1857.8,760.9z"/>
	<path class="st2" d="M1449.4,579c-8.5-1.9-22.5,5.4-26.9-6.6c-3.9-10.6,3.6-19.6,13-28.5c20.6-19.7-4.9-24.4-14.5-33.4
		c-6.7-6.3-17.1-10-12.8-22.1c3-8.4,9.4-13.8,18.3-15.5c11.1-2.1,20.2-2.2,23.5,12.7c5.7,26,15.6,49.8,40.6,63.8
		c10,5.6,5.1,11.3,0.3,17.5C1480.2,580.6,1465,578.3,1449.4,579L1449.4,579z"/>
	<path class="st2" d="M1370.4,566.8c-2.7-0.5-6.1-0.3-8.7-1.7c-6.7-3.6-7.1-10.7-4.8-16.3c7.3-17.6,16.7-33.8,38.8-35.5
		c8.8-0.7,17,1.4,20.5,10.4c4.3,10.9-2.7,17.4-10.9,23C1394.3,554.3,1385.1,564.8,1370.4,566.8L1370.4,566.8z"/>
	<path class="st2" d="M900.7,633.5c-0.4,10.4-10.7,14.1-15.7,21.3c-5.2,7.4-14.4,8.4-22.6,4.3c-3-1.5-6.8-6.7-6.3-9.4
		c1.9-10.3,11.5-6.9,17.9-7.3C883.8,641.6,887.1,623.1,900.7,633.5L900.7,633.5z"/>
	<path class="st2" d="M823.7,666.2c-6.3-1-9.1-5.1-7.3-10.8c1.1-3.4,4.8-8,7.6-8.3c5.7-0.6,8.7,4.2,9.1,9.9
		C833.6,663.5,829.7,666,823.7,666.2z"/>
	<path class="st3" d="M1883.1,842.7c-41.4,0.9-82.3,6.1-118.1-26.2c-12.4-11.2-29.2-10.1-42.1-1.4c44.8,156.2,60.1,324.2,9.1,478.1
		c-25,75.5-63.1,145.5-111.3,207.7c2.1,2.4,4.4,4.8,7.1,7c15.1,12.2,15.9,27.7,15.9,45c0,22.5-5.6,46.4,13.2,65.5
		c18.6,18.9,28,41.2,24.2,68.2c-2.8,19.9,12.5,30.6,30.9,27.9C1915.1,1454.6,1967.8,1161,1883.1,842.7L1883.1,842.7z"/>
	<path class="st3" d="M1830.9,701.1c-56.2-121.9-138-224.9-235.5-316.1c-0.2,28.8-25.4,29.2-43.2,37.9c-4.1,2-7.7,4.3-10.8,6.7
		c15.7,22,30.6,44.7,44.5,67.8c6.7-3.5,14.3-8.1,19.2,2c4.2,8.8,6.2,21.2,3.6,30.3c-0.5,1.5-1.1,2.7-1.9,3.8
		c20.2,36.4,38.3,73.6,54.4,110.6c1.3,1.2,2.5,2.3,3.8,3.4c19.8,16.6,39.9,31.4,40,62.6c0.1,16.3,15.6,33.5,31.1,35.5
		c14.1,1.8,8.6-19.8,14.3-30c3.6-6.5,6-12.9,13-16.7c9.8-5.3,15.9-7.4,19.3,7.8c12.1,53.6,15.6,55.5,75,54.2
		C1848.8,741,1840.1,721,1830.9,701.1L1830.9,701.1z"/>
	<path class="st4" d="M182.8,645.9c13.4-40.2,36.5-77.9,61.2-112c29.2-40.2,63.9-77.2,101.7-109.3c17.7-15.1,37-29,57-40.8
		c7.9-4.7,15.8-9.2,23.9-13.4c7.6-4,18,3.6,11.5,11.8c-2.7,4.6-7.2,8.7-10.7,12.7c-7.8,8.6-15.9,17.1-23.6,25.9
		c-16.6,19.1-33.2,38.1-49.7,57.3c-31.1,36-60.5,73.5-92.2,109c-15.2,17.1-30.7,34-46.8,50.3c-5.9,6-12,12-18.5,17.4
		C190.3,660,180.1,654.4,182.8,645.9L182.8,645.9z"/>
	<path class="st4" d="M119.2,749.8c-2,0,2.9-22.2,3.6-24.2c3.9-10.8,10.2-20.7,17.5-29.4c5.3-6.3,34.5-35.3,36.3-10.9
		c1.3,17.9-10.1,39.3-20.8,52.8c-6,7.6-13.2,15-22,19.4C127.7,760.6,120,756.7,119.2,749.8C119.2,749.8,119.3,750.8,119.2,749.8
		L119.2,749.8z"/>
</g>
</svg>
