<?xml version="1.0" encoding="utf-8"?>
<!-- Generator: Adobe Illustrator 26.2.1, SVG Export Plug-In . SVG Version: 6.00 Build 0)  -->
<svg version="1.1" id="Layer_1" xmlns="http://www.w3.org/2000/svg" xmlns:xlink="http://www.w3.org/1999/xlink" x="0px" y="0px"
	 viewBox="0 0 1920 1080" style="enable-background:new 0 0 1920 1080;" xml:space="preserve">
<style type="text/css">
	.st0{fill:#1A1B25;}
	.st1{fill:#1C1C29;}
	.st2{fill:#D8F3FF;}
	.st3{fill:#CFCFCF;}
	.st4{fill:#F2FAFE;}
	.st5{fill:#EFEFEF;}
	.st6{fill:#F4F4F4;}
</style>
<rect class="st0" width="1920" height="876"/>
<g>
	<g id="a_00000036218684516816531000000017300839262611415224_">
		<path class="st1" d="M0,486v400h1920V291c-7-1-45.8,22-37.8,7.1c15.8-29.4,14.1-41.3,2.3-42.8c-20.6,18.9-125.6,59.8-168.8,75.8
			c-140.1,51.8-192.6,35.8-355.5,45.6c53.9,42.9,173,17.6,158.2,22c-102.8,31-217.4,13.9-319.5-3.7c-69.5-12-228.4,47.7-289.4,66
			c-78.3,22.6-180.9,16.7-271.6,24.3c-6.7-30.7,91.1-24.9,174.7-104.2c-159.2,78.3-428.7,55-476.2,49.6
			c-9.9-1.1-86.1-8.5-130.7-21.2c7.6,25.2,87.9,38.1,112.9,41.2c15.5,1.9,33.9,4.8,45.4,11.1C330.4,488.9,0,421,0,421l0,0V486z"/>
	</g>
	<g id="b_00000120560859977341413280000013330313774025229483_">
		<g>
			<g>
				<path class="st2" d="M1920,379c-25-14.9-40.8-11.3-68.7-2.8c-52.8,16-83.9,70.4-70.8,124c-14.2-2.4-28.8-1.5-42.6,2.7
					c-41.3,12.5-68.7,51.5-66.4,94.5c-15.5-4.4-32-4.2-47.4,0.5c-20.6,6.2-38.1,20.1-49,38.8c-17.9-22.5-47.6-32-75.3-24
					c-0.4-6.1-1.6-12.1-3.3-18c-13.3-44.1-59.9-69.1-104-55.8c-2.3,0.7-4.6,1.5-6.9,2.5c0.6-9.8-0.6-19.6-3.4-28.9
					c-6.4-21.2-20.9-39-40.4-49.4c-19.5-10.5-42.4-12.8-63.6-6.4c-33.6,10.2-57.3,40.3-59.2,75.4c-24.8-19.1-57.4-25.1-87.4-16.1
					c-13.8,4.2-26.5,11.4-37.2,21.1c-26.1-47.4-81.8-70.1-133.5-54.5l0,0l0,0c-35.9,10.9-64.3,38.6-75.9,74.3
					c-26.2-8.8-54.5-9.2-81-1.2c-43.9,13.3-77.9,48.1-90.1,92.3c-26.2-8.8-54.6-9.3-81.1-1.3c-70.6,21.3-110.6,95.8-89.3,166.4
					c14.4,47.6,39.6,65.7,88.4,75h1288"/>
				<path class="st3" d="M945.8,508.3c-20.6,6.3-39,18.1-53.3,34.1c-2.8,4.6-5.3,9.5-7.4,14.4c-1.1-0.2-2.2-0.4-3.4-0.6
					c-1.3,2.4-2.6,4.9-3.7,7.3c9.4-5.7,19.4-10.2,29.9-13.4c5.1-1.5,10.3-2.7,15.6-3.6c42.9-7.2,86.7,6.8,117.4,37.7
					c-35.3-17.3-75.1-23.1-113.8-16.6c-38.8,6.6-74.5,25.2-102.1,53.1c7.4-15,17.5-28.5,29.9-39.8c-22.7-5.4-46.5-4.9-69.1,1.4
					c-22.7,6.9-43.2,19.6-59.6,36.6c-5.1,9.1-9.2,18.8-12.1,28.9c-2.7-0.5-52-21.9-98,7.1c0,0-41,34.8-55.7,47.6
					c-21.4,32.6-27.5,72.9-16.7,110.4c14.4,47.6,75.4,75,75.4,75h1301V428c-11.4-0.4-36.1,25.3-47.9,52.9
					c2.3-33.2,19.4-61.7,47.9-78.9v-2c-21.9-8.7-43.9-9.7-66.7-3.2c-39.3,11.9-68.3,45-74.4,84.8c0,6.2,0.5,12.4,1.6,18.5
					c-0.9-0.1-1.8-0.1-2.7-0.1c0.1,7.2,1,14.4,2.7,21.4c-14.5-2.3-29.3-1.3-43.4,2.9c-32.2,9.9-56.9,35.8-65,68
					c-0.2,1.7-0.4,3.4-0.6,5.1c-0.2,0-0.4-0.1-0.6-0.1c0,0.4-0.1,0.7-0.1,1c2.8-2.5,5.8-4.8,8.9-7c7-4.2,14.4-7.6,22.2-10
					c23.6-7.4,49-6,71.6,3.9c-29.9-2.4-59.7,4.6-85.4,20.1c-25.7,15.5-45.8,38.7-57.6,66.3c1.7-19.8,9.1-38.7,21.3-54.4
					c-10.5-0.9-21.1,0-31.3,2.9c-21.1,6.4-39,20.3-50.1,39.1c-18.1-22.4-48.4-31.8-76.6-23.6c-0.4-6.1-1.5-12.1-3.3-18
					c-13.3-44.1-60.6-68.9-105.6-55.3c-2.4,0.7-4.7,1.6-7,2.5c0.6-9.8-0.5-19.6-3.3-28.9c-6.4-21.2-21.1-38.9-40.9-49.3
					s-43.1-12.5-64.7-6c-18.4,5.7-34.3,17.3-45.2,33c-1.9,5.1-3.3,10.4-4.2,15.8c5-0.5,10.1-0.7,15.3-0.4c36.9,2,73.1,24.1,98.5,60
					c1.2-0.3,2.4-0.5,3.6-0.7c27.1-4.6,54.8,4.3,74.2,23.8c-22.3-10.9-47.5-14.6-71.9-10.5c-24.5,4.2-47.1,15.9-64.6,33.6
					c10.8-22.6,31.1-39.3,55.4-45.5c-28.8-22.5-61.3-35.4-93.7-37.2c-9.3-0.3-18.5,0.4-27.6,2c-0.2,0.7-0.3,1.3-0.5,2
					c-1.1-0.6-2.2-1.2-3.3-1.7c-24.2,4.1-46.7,14.7-65.9,31.1c10.4-19,24.8-34,42-43.7c-19.9-6.9-41.5-7.3-61.8-1.2
					c-14.1,4.3-27.1,11.5-38,21.3C1055.2,514.8,998.6,492.3,945.8,508.3L945.8,508.3L945.8,508.3z M1215.1,530c0,0.1,0,0.2-0.1,0.3
					c0.1,0,0.3-0.1,0.4-0.1C1215.4,530.1,1215.2,530.1,1215.1,530L1215.1,530L1215.1,530z"/>
			</g>
			<g>
				<path class="st4" d="M141.6,564.2c-39.5,11.9-66.6,48-67.1,89.3c-20-8.2-42.3-9.3-63-3C1,654,0,655,0,655v233h1920V730
					c0,0-27.4-26.8-64.8-15.6c-17.9,5.4-33.2,17.3-43,33.2c-14.5-22.8-42.4-33.2-68.3-25.4c-8,2.4-15.4,6.5-21.8,12
					c-18.2-20.9-46.9-29.1-73.4-21.1c-29.2,8.8-49.4,35.4-50.1,65.9c-18.1-6.8-37.9-7.5-56.5-1.9c-33.2,10-57.4,38.7-61.8,73.1
					c-16.4-5.8-34.1-6.3-50.7-1.2c-10.6,3.2-20.5,8.6-29,15.8c-0.4-2.4-1-4.8-1.7-7.2c-5.3-17.5-17.3-32.2-33.4-40.9
					s-35-10.5-52.6-5.3c-7.7,2.3-14.8,6-21.3,10.8c-0.3-6.5-1.3-13-3.2-19.2c-3.5-11.7-9.7-22.4-18.2-31.2
					c8.2-17.4,9.7-37.2,4.1-55.5c-12.4-41.1-55.8-64.4-96.9-52c-28.3,8.6-49.4,32.5-54.2,61.7c-17.4-8.3-37.3-9.8-55.8-4.2
					c-21.9,6.6-39.8,22.6-48.9,43.7c-21.6-16.2-49.6-21.3-75.5-13.7c-0.6-3.8-1.4-7.6-2.5-11.3c-6.6-21.8-21.5-40-41.5-50.8
					s-43.5-13.1-65.3-6.5c-0.1,0-0.1,0-0.2,0.1c-0.4-1.9-0.8-3.7-1.4-5.6c-5-16.6-16.4-30.5-31.7-38.7s-33.2-10-49.8-5
					c-22.4,6.8-39.5,25-44.8,47.8c-16-12.9-36.6-18.7-57-16c-0.4-3.2-1.1-6.4-2-9.5c-9.7-32.3-43.8-50.5-76.1-40.8
					c-13.9,4.2-25.8,13.2-33.6,25.4c-16.3-21.7-42.8-33.3-69.9-30.6c0.6-9.1-0.5-18.3-3.1-27c-6-19.7-19.5-36.3-37.7-46
					s-39.5-11.9-59.2-5.9c-25.8,7.8-45.7,28.3-52.6,54.3c-17.3-11.5-38.8-14.6-58.7-8.7c-7.6,2.3-14.7,5.9-21,10.5
					C210.4,563.1,174.6,554.3,141.6,564.2L141.6,564.2L141.6,564.2z"/>
				<path class="st5" d="M120.8,582.6c-40.2,12.1-67.8,48.9-68.3,90.8C32.1,665.1,21.1,662.6,0,669v219h1920c0,0,0-70.2,0-70v-35
					c0,0-6-2-16.8-0.1c-31.5,5.6-59.8,23-81.3,46.7c13.1-30.5,39.3-53.4,71.3-62.3c2.1-0.6,4.2-1.1,6.3-1.5
					c17-3.1,20.4-1.8,20.4-1.8v-25c0,0-32.6-9.6-55.2-3.5c-18.2,5.5-33.8,17.6-43.8,33.8c-14.8-23.3-43.2-33.8-69.6-25.9
					c-8.2,2.5-15.7,6.6-22.2,12.2c-18.5-21.2-47.8-29.7-74.8-21.5c-25,8.2-43.6,29.5-48.2,55.5c30.5-8.6,63.2-3.6,89.7,13.8
					c-31-8.1-63.7-6.2-93.5,5.3c-29.9,11.6-55.4,32.2-72.9,59c8.1-30.5,29-55.9,57.3-69.9c-13.5-2.7-27.4-2.2-40.7,1.4
					c-33.8,10.2-58.4,39.4-62.8,74.4c-16.6-5.9-34.7-6.4-51.6-1.3c-10.8,3.3-20.9,8.8-29.5,16.1c-0.5-2.5-1-4.9-1.7-7.3
					c-5.4-17.8-17.6-32.8-34-41.6s-35.7-10.7-53.5-5.4c-7.8,2.4-15.1,6.1-21.6,10.9c-0.3-6.6-1.4-13.2-3.2-19.6
					c-3.6-11.9-9.9-22.8-18.5-31.7c8.3-17.7,9.8-37.8,4.2-56.5c-12.6-41.8-56.8-65.5-98.6-52.9c-27.9,8.6-48.8,31.9-54.4,60.5
					c2.6-0.4,5.1-0.7,7.7-0.9c29,2,55.2,17.9,70.4,42.7c-20.2-16.7-45.2-26.7-71.3-28.4c-26.2-1.8-52.3,4.8-74.6,18.6
					c11.3-14,26.6-24.2,43.8-29.3c5.8-1.2,11.6-1.9,17.5-2c-16.3-6.6-34.3-7.6-51.1-2.8c-22.3,6.8-40.5,23-49.8,44.4
					c-22-16.5-50.5-21.7-76.8-14c-0.6-3.9-1.5-7.7-2.6-11.5c-6.7-22.2-21.9-40.7-42.3-51.7c-20.4-10.9-44.3-13.3-66.4-6.7
					c-0.1,0-0.1,0-0.2,0.1c-0.4-1.9-0.9-3.8-1.4-5.7c-5.1-16.9-16.7-31.1-32.2-39.4c-15.6-8.3-33.8-10.2-50.7-5.1
					c-16.7,5.9-30.4,18.3-38,34.4c7.4-1.8,14.9-2.6,22.5-2.5c29,2,55.2,17.9,70.3,42.7c-20.2-16.7-45.2-26.7-71.3-28.4
					c-26.2-1.8-52.3,4.8-74.6,18.6c8.6-10,19.2-18,31.2-23.4c-13.4-7.3-28.7-10.4-43.8-9c-0.4-3.3-1.1-6.5-2.1-9.6
					c-9.9-32.8-44.6-51.4-77.4-41.5c-14.1,4.3-26.3,13.4-34.2,25.8c-16.6-22.1-43.6-33.9-71.1-31.1c0.6-9.3-0.5-18.6-3.2-27.5
					c-6.1-20.1-19.8-36.9-38.3-46.9c-18.5-9.9-40.2-12.1-60.2-6c-18.7,5.9-25.6,21.1-35.5,38c0.7-0.2-0.7,0.1,0,0
					c33.2-5.6,60.4,2.2,84.2,26.1c-27.3-13.4-58.1-17.9-88.2-12.8c-26.2,4.5-50.7,16-70.8,33.5c17.8,4.7,33.9,14.1,46.9,27.1
					c-27.3-13.4-58.1-17.9-88.1-12.8c-30,5.1-57.7,19.5-79.1,41.1c14.6-30.4,43-51.9,76.3-57.5c13.4-2.2,27.2-1.8,40.4,1.2
					c10-15.4,23.9-27.9,40.2-36.3c-12.8-4.1-26.6-4.5-39.7-1.1c-7.7,2.3-14.9,6-21.4,10.7C190.8,581.5,154.3,572.5,120.8,582.6
					L120.8,582.6z"/>
				<path class="st6" d="M173.8,726c-12.6,5.4,39,19.7,31.4,35.4c-3.8,7.9-30.9,36.4-40.8,41.8C120.3,827.3,44.1,746.5,0,755v133
					h1920v-77c0,0-7-5-37.1-14.4c-8.9-1.6-24.4,8.1-38.3,13.9c1.4,8.5,23.6,8,31.2,10c54.1,14,33.7,32.2-9.7,34.1
					c-146.8,6.3-153.4-73.7-290,15.6c-14.8,9.7-64.7,5.2-63,1.6c0.1-0.2,42.8-33.6,24.8-30c-62.3,12.4-139.3,21.3-186.2,7.5
					c-115.9-34.1-216.2-96.2-304.6-69.9c-23.5,7,97.6,17.8,44.8,58.2c-9,6.9-28-3.7-32.2-4.2c-16.2-2.1-36.7-30.4-56.4-29.6
					c-75.5,3.2-136-11.2-207.9-32.3c-22.1-6.5,38.1-25.8,57.4-38.4c7.7-5-18.4,1.5-27.5,0.3c-46.2-6-92.8,13.2-149.3,17.4
					c-72.4,5.3-230.9-88.4-134.2-1.9c36.5,32.6-155.8,25.8-173.5,22.1c-41.2-8.6-149.1-54.2-191.3-46
					C175.8,725.3,174.7,725.6,173.8,726L173.8,726L173.8,726z"/>
			</g>
		</g>
	</g>
</g>
</svg>
